<svg width="478" height="478" fill="none" xmlns="http://www.w3.org/2000/svg"><path d="M241.772 436.156c118.089 0 213.819-52.043 213.819-116.24 0-64.198-95.73-116.24-213.819-116.24-118.089 0-213.8186 52.042-213.8186 116.24 0 64.197 95.7296 116.24 213.8186 116.24Z" fill="#F5F5F5"/><path d="M349.944 305.92c24.625 0 44.588-11.527 44.588-25.745 0-14.219-19.963-25.745-44.588-25.745s-44.588 11.526-44.588 25.745c0 14.218 19.963 25.745 44.588 25.745ZM108.745 371.205c24.625 0 44.588-11.526 44.588-25.745 0-14.218-19.963-25.745-44.588-25.745-24.6252 0-44.5878 11.527-44.5878 25.745 0 14.219 19.9626 25.745 44.5878 25.745Z" fill="#E0E0E0"/><path d="m416.95 271.169-6.444-3.68s-3.087-17.027-.784-31.653c3.251-20.574 17.256-27.677 22.352-25.631 5.095 2.046 6.281 8.145-2.868 20.076-5.459 6.969-12.39 21.787-12.256 40.888Z" fill="#BA68C8"/><path d="m416.95 271.169-6.444-3.68s-3.087-17.027-.784-31.653c3.251-20.574 17.256-27.677 22.352-25.631 5.095 2.046 6.281 8.145-2.868 20.076-5.459 6.969-12.39 21.787-12.256 40.888Z" fill="#000" opacity=".1"/><path d="M413.881 262.795h.067c.06-.006.119-.024.172-.053.054-.029.101-.068.139-.115.039-.047.067-.101.084-.159.017-.059.023-.12.016-.18-2.103-19.33 6.252-40.152 15.2-48.44.09-.084.144-.2.148-.323.005-.123-.04-.242-.124-.332-.083-.09-.199-.143-.322-.148-.123-.004-.242.04-.332.124-9.102 8.403-17.62 29.636-15.488 49.224.016.108.068.207.148.28.08.073.184.116.292.122Z" fill="#fff"/><path d="M434.817 281.485c1.014.583 3.108-.689 3.911-1.234 1.378-.934 2.491-2.208 3.231-3.699.829-1.695 1.113-3.606.812-5.469-.168-.969-.398-1.927-.688-2.868-.277-.956-.545-1.912-.813-2.82-.332-.918-.472-1.894-.411-2.868.239-1.912 1.912-3.279 3.509-4.445 1.721-1.291 3.518-2.993 3.508-5.316-.13-1.802-.848-3.512-2.045-4.866-1.109-1.405-2.429-2.648-3.432-4.13-.795-1.033-1.207-2.31-1.167-3.613.103-.795.37-1.56.784-2.247.943-1.438 1.767-2.951 2.467-4.522.564-1.625.487-3.652-.784-4.78-.569-.417-1.216-.716-1.902-.88-.686-.165-1.398-.19-2.094-.076-1.319.16-2.588.604-3.719 1.3-3.69 2.056-5.794 6.425-9.704 8.002-1.539.453-3.103.817-4.684 1.09-.803.146-1.567.46-2.241.921-.673.461-1.242 1.06-1.669 1.756-1.434 2.868 1.233 6.405.22 9.445-.899 2.696-3.518 3.728-4.981 6.157-.601 1.071-.843 2.308-.688 3.527.125 2.063.627 4.085 1.482 5.966.959 1.869 2.055 3.665 3.279 5.372.009.039 17.657 10.21 17.819 10.297Z" fill="#BA68C8"/><path d="M424.359 275.921c.061-.002.121-.015.177-.04.056-.025.106-.06.148-.105.042-.044.074-.097.096-.154.021-.057.031-.118.028-.179-.755-18.231 7.83-38.355 14.082-44.206.044-.041.079-.091.104-.146.025-.055.039-.114.04-.175.002-.06-.008-.12-.03-.177-.021-.056-.053-.108-.095-.152-.041-.044-.091-.079-.146-.104-.055-.025-.115-.038-.175-.04-.06-.002-.12.008-.177.03-.056.021-.108.054-.152.095-6.376 5.965-15.133 26.424-14.34 44.932.009.112.059.216.14.294.081.077.188.122.3.127Z" fill="#fff"/><path d="M427.093 254.382h.134c4.319-1.194 8.756-1.909 13.231-2.132.121-.007.234-.061.316-.15.082-.089.126-.207.124-.328 0-.061-.013-.121-.037-.177-.025-.056-.06-.107-.105-.148-.045-.042-.098-.073-.156-.093-.058-.02-.119-.027-.18-.022-4.553.23-9.067.957-13.461 2.17-.058.018-.111.047-.158.085-.047.038-.085.085-.114.139-.028.053-.046.111-.052.172-.006.06.001.12.018.178.031.092.09.171.17.226.079.055.174.083.27.08Z" fill="#fff"/><path d="m46.2991 291.876 6.4052-3.699s3.107-17.027.7935-31.654c-3.2409-20.573-17.208-27.666-22.3418-25.63-5.1337 2.036-6.2809 8.145 2.868 20.076 5.4588 6.969 12.4472 21.816 12.2751 40.907Z" fill="#BA68C8"/><path d="m46.2991 291.876 6.4052-3.699s3.107-17.027.7935-31.654c-3.2409-20.573-17.208-27.666-22.3418-25.63-5.1337 2.036-6.2809 8.145 2.868 20.076 5.4588 6.969 12.4472 21.816 12.2751 40.907Z" fill="#000" opacity=".1"/><path d="M49.712 290.892c-.1251-.008-.2423-.064-.3264-.157-.084-.093-.1282-.215-.1229-.34 1.5105-28.681-2.5239-44.999-13.4987-54.684-.0882-.091-.1376-.212-.1376-.339 0-.127.0494-.249.1376-.339.0909-.089.2126-.138.3393-.138.1267 0 .2485.049.3394.138 11.2139 9.894 15.3534 26.481 13.8238 55.448-.0081.064-.0291.125-.0617.181-.0325.055-.076.104-.1278.142-.0518.039-.1109.066-.1736.081s-.1278.017-.1914.007Z" fill="#fff"/><path d="M48.2398 290.748c.1338-6.156-3.4512-26.548-15.5159-33.966-12.0647-7.419-17.925 1.825-13.0399 7.428 3.585 4.101 10.2579 7.064 16.5388 15.544 4.3116 5.832 6.7972 14.025 6.7972 14.025l5.2198-3.031Z" fill="#BA68C8"/><path d="M46.0792 293.138c-.122 0-.2394-.046-.3282-.129-.0889-.084-.1425-.198-.1498-.32-1.1568-15.545-9.9806-29.493-21.4622-33.909-.059-.023-.113-.057-.1588-.1-.0459-.044-.0828-.096-.1085-.154-.0258-.057-.0399-.12-.0416-.183-.0017-.063.0091-.126.0317-.185s.0566-.113.1-.159c.0435-.046.0955-.082.1532-.108.0577-.026.12-.04.1831-.042.0632-.001.1261.009.1851.032 11.8448 4.56 20.8886 18.843 22.074 34.741.0052.064-.0024.128-.0223.188-.0199.061-.0517.117-.0935.165-.0419.048-.093.087-.1503.115-.0572.028-.1195.045-.1832.048h-.0287Z" fill="#fff"/><path d="M289.171 109.414c1.453 1.195 3.116 1.817 5.028 3.671 1.209 1.376 2.735 2.435 4.446 3.088 2.208.88 4.283.621 10.411-.363 7.485-1.195 10.707-2.457 13.938-5.21 3.776-3.222 12.227-12.9446 16.31-16.7591 4.321-4.0343 10.257-2.476 10.257-2.476-1.837 5.9797-4.57 11.6461-8.106 16.8061-3.27 4.656-9.379 9.121-12.142 11.415-4.426 3.681-6.778 5.134-16.491 5.87-7.332.554-8.307.726-14.34.554-2.17-.067-3.518-.086-7.074-.382-1.544-.101-3.073-.367-4.56-.794-1.683-.387-3.295-1.032-4.78-1.912-1.939-1.258-3.504-3.015-4.532-5.085-.561-1.139-.849-2.393-.841-3.662.015-1.279.483-2.512 1.319-3.48.164-.197.375-.352.612-.449.464-.079.94.024 1.329.287 2.294 1.176 4.608 2.801 7.017 3.728 2.027.774 3.576 1.052 3.423.641-.153-.411-1.377-.784-2.639-2.209-1.262-1.424-1.577-3.403-.765-4.025.813-.621.765-.458 2.18.746Z" fill="#FFA8A7"/><path d="M351.301 91.3362c-2.31-1.1106-4.932-1.3973-7.428-.8126-3.776 1.0899-6.807 3.5564-10.411 7.4282-3.604 3.8722-9.693 10.1242-9.693 10.1242s3.001 7.581 9.732 10.277l14.11-13.05 3.69-13.9668Z" fill="#E0E0E0"/><path d="M372.037 264.563h-8.556v14.646h8.556v-14.646ZM348.357 268.254l-8.547.296-.43-15.497 8.977-.296v15.497Z" fill="#FFA8A7"/><path d="M375.708 155.226c0 8.164-1.444 55.677-1.444 55.677.192 2.352 2.457 6.53 2.639 15 .249 12.275-4.474 45.983-4.474 45.983-1.482.732-3.107 1.129-4.759 1.162-1.652.033-3.291-.298-4.801-.97 0 0-3.881-45.697-5.421-57.848-1.338-10.612-3.604-39.425-3.604-39.425l-4.025 34.626c.981 4.46 1.329 9.037 1.033 13.594-.402 5.622-1.989 40.429-1.989 40.429-1.489.843-3.146 1.348-4.853 1.478-1.707.131-3.421-.116-5.022-.722 0 0-6.032-49.626-6.128-54.779-.115-5.879 2.228-65.907 2.228-65.907l40.62 11.702Z" fill="#37474F"/><path d="M370.058 95.1315c1.884.8346 3.363 2.3763 4.12 4.2925.878 2.363 1.303 4.87 1.253 7.39v16.759l.248 31.653c-12.284 6.472-27.886 6.902-40.993-2.668 0 0 .736-40.735.736-47.398v-.956c.478-9.56 9.847-16.0513 19.12-13.6804l7.782 2.0458 7.782 2.5621h-.048Z" fill="#F0F0F0"/><path d="M350.791 75.4211c6.321-1.4918 10.235-7.8249 8.743-14.1454-1.491-6.3206-7.824-10.2351-14.145-8.7433-6.321 1.4918-10.235 7.8249-8.743 14.1455 1.492 6.3205 7.825 10.235 14.145 8.7432Z" fill="#BA68C8"/><path opacity=".5" d="M350.791 75.4211c6.321-1.4918 10.235-7.8249 8.743-14.1454-1.491-6.3206-7.824-10.2351-14.145-8.7433-6.321 1.4918-10.235 7.8249-8.743 14.1455 1.492 6.3205 7.825 10.235 14.145 8.7432Z" fill="#000"/><path d="M368.414 72.3118s-1.912 8.9577-2.668 10.4204c-.505.9149-1.344 1.5997-2.342 1.912l.134-6.3 4.876-6.0324Z" fill="#BA68C8"/><path opacity=".5" d="M368.414 72.3118s-1.912 8.9577-2.668 10.4204c-.505.9149-1.344 1.5997-2.342 1.912l.134-6.3 4.876-6.0324Z" fill="#000"/><path d="M366.024 59.4919c.667-.0779 1.342-.0021 1.975.2216.633.2237 1.207.5894 1.677 1.069 1.567 1.5965.688 6.6155-1.262 11.5293l-3.585.4207 1.195-13.2406Z" fill="#BA68C8"/><path opacity=".5" d="M366.024 59.4919c.667-.0779 1.342-.0021 1.975.2216.633.2237 1.207.5894 1.677 1.069 1.567 1.5965.688 6.6155-1.262 11.5293l-3.585.4207 1.195-13.2406Z" fill="#000"/><path d="M363.748 72.7325c.717.4301 1.75-.9561 2.629-1.9121.88-.956 3.824-2.1988 5.23.8509 1.405 3.0496-1.272 7.1987-3.557 7.9157-3.929 1.2332-4.512-1.2906-4.512-1.2906l-.258 14.6459c-4.885 6.2618-18.441 5.736-12.791-.8126v-4.3116c-1.751.2771-3.527.3669-5.297.2677-2.868-.4493-4.713-2.7246-5.592-5.8507-1.405-5.0286-1.912-9.082-.746-18.9671 1.31-10.8314 13.91-10.9462 20.717-6.692 6.806 4.2542 4.177 16.1565 4.177 16.1565Z" fill="#FFA8A7"/><path d="M363.748 73.937c.364 0 1.74-2.2753 2.629-3.0879 1.243-1.128-.353-11.3572-.353-11.3572.326-.8848.387-1.8457.175-2.7646-.212-.9189-.689-1.7557-1.37-2.4074-1.702-1.912-4.541-2.0745-9.398-2.868-2.543-.4015-6.405-1.109-8.948-1.587-3.03-.564-5.545-1.1567-7.648.7075-.842.7256-1.438 1.6949-1.705 2.7738-.267 1.079-.192 2.2143.214 3.249.599 1.2888 1.67 2.2984 2.992 2.8202 0 0 1.319 1.1759 5.927 1.7399 4.25.3147 8.519.2315 12.753-.2486 1.339-.1816 1.625 1.1186 2.342 4.6462.651 3.107 1.176 8.365 2.39 8.3841Z" fill="#BA68C8"/><path opacity=".5" d="M363.748 73.937c.364 0 1.74-2.2753 2.629-3.0879 1.243-1.128-.353-11.3572-.353-11.3572.326-.8848.387-1.8457.175-2.7646-.212-.9189-.689-1.7557-1.37-2.4074-1.702-1.912-4.541-2.0745-9.398-2.868-2.543-.4015-6.405-1.109-8.948-1.587-3.03-.564-5.545-1.1567-7.648.7075-.842.7256-1.438 1.6949-1.705 2.7738-.267 1.079-.192 2.2143.214 3.249.599 1.2888 1.67 2.2984 2.992 2.8202 0 0 1.319 1.1759 5.927 1.7399 4.25.3147 8.519.2315 12.753-.2486 1.339-.1816 1.625 1.1186 2.342 4.6462.651 3.107 1.176 8.365 2.39 8.3841Z" fill="#000"/><path d="m366.014 60.2853 4.35-2.3326c-.139-.2885-.335-.5462-.575-.7579-.241-.2117-.521-.373-.825-.4746-.304-.1016-.625-.1413-.945-.1168-.319.0245-.63.1127-.915.2595-.587.3207-1.028.8554-1.231 1.4928-.203.6374-.152 1.3285.141 1.9296Z" fill="#BA68C8"/><path opacity=".5" d="m366.014 60.2853 4.35-2.3326c-.139-.2885-.335-.5462-.575-.7579-.241-.2117-.521-.373-.825-.4746-.304-.1016-.625-.1413-.945-.1168-.319.0245-.63.1127-.915.2595-.587.3207-1.028.8554-1.231 1.4928-.203.6374-.152 1.3285.141 1.9296Z" fill="#000"/><path d="M350.46 87.8182s6.453-1.3002 8.709-2.5048c1.342-.6878 2.443-1.7683 3.155-3.0974-.339 1.3176-.941 2.5531-1.769 3.6328-1.654 2.1128-10.057 3.6615-10.057 3.6615l-.038-1.6921Z" fill="#F28F8F"/><path d="M350.776 71.1168c.007.2535.089.4992.235.7063.147.2072.351.3666.587.4585.237.0918.495.112.743.0579.247-.054.474-.1798.65-.3618.177-.1819.296-.4118.343-.6611.047-.2492.019-.5067-.08-.7404-.098-.2336-.264-.4329-.475-.5731-.211-.1402-.459-.215-.713-.2151-.346.0075-.676.1511-.918.3998-.241.2486-.375.5824-.372.929ZM352.143 66.2316l2.772 1.5296c.194-.3799.235-.82.114-1.2293-.121-.4092-.394-.7563-.764-.9695-.182-.1001-.383-.1623-.59-.1828-.207-.0205-.416.0012-.614.0638-.199.0625-.382.1646-.54.3001-.158.1355-.287.3015-.378.4881Z" fill="#263238"/><path d="m351.043 80.0458-2.954 1.109c.066.1965.172.3776.309.5327.138.1551.305.281.493.3701.187.0892.39.1399.597.149.207.0091.414-.0235.609-.0958.393-.1564.711-.4582.887-.8428.176-.3846.197-.8223.059-1.2222Z" fill="#F28F8F"/><path d="m339.619 67.3119 2.524-1.912c-.113-.1753-.261-.3254-.435-.4411-.174-.1156-.369-.1943-.575-.231-.205-.0368-.416-.0309-.619.0173s-.393.1377-.56.2629c-.347.2639-.575.6529-.638 1.0836-.063.4308.046.8689.303 1.2203ZM340.393 70.744c.01.2549.094.5014.242.7088.149.2074.355.3666.593.4577.238.0912.498.1102.747.0547.249-.0554.476-.1828.653-.3664.177-.1836.297-.4152.343-.6661.046-.2508.018-.5097-.082-.7445-.099-.2348-.266-.4351-.478-.576-.213-.1408-.462-.216-.718-.2162-.174.0025-.345.0394-.505.1086-.16.0692-.304.1694-.425.2947-.121.1253-.216.2733-.279.4354-.064.1621-.094.3352-.091.5093Z" fill="#263238"/><path d="m346.98 69.5203-.42 7.7819-4.063-1.3862 4.483-6.3957Z" fill="#F28F8F"/><path d="M363.481 274.984v-1.224c-.822.363-2.725 7.648-6.119 10.707-2.696 2.467-6.376 5.306-7.313 8.05-.937 2.744 5.124 4.426 7.648 3.986 2.925-.525 8.002-2.581 9.283-4.493 1.281-1.912 1.864-4.732 2.868-6.137 1.003-1.406 3.422-2.964 3.977-4.589.306-.889-.058-2.868-.488-4.484-.43-1.615-.822-3.174-1.338-3.04v.956c-1.221.956-2.733 1.466-4.283 1.444-1.214.028-4.245-.22-4.235-1.176ZM339.724 265.911c-.449 0-.812.641-1.788 1.702-1.462 1.479-3.162 2.704-5.028 3.623-3.203 1.597-9.436 4.063-12.256 5.335-1.759.793-1.673 2.925.143 4.13 1.817 1.204 6.214 2.084 11.472.908 2.868-.65 6.616-3.298 8.987-3.155 2.371.143 6.797.105 8.546-1.099 1.75-1.205 1.052-3.777.555-5.994-.535-2.41-1.214-6.176-2.008-6.004v.832c-1.032 1.558-6.338 2.189-8.604 1.042l-.019-1.32ZM353.854 174.805c-4.422-1.377-8.489-3.707-11.912-6.826 0 0 2.294 4.302 9.13 8.307l-.956 30.239 3.738-31.72ZM100.122 119.825h3.05c4.541 0 8.896 1.804 12.107 5.015 3.211 3.211 5.014 7.566 5.014 12.107v36.328H83.0095v-36.328c0-4.541 1.8039-8.896 5.0149-12.107 3.211-3.211 7.566-5.015 12.1066-5.015h-.009Z" fill="#263238"/><path d="m98.8982 351.875-2.3996-2.132c-2.323-2.122-4.0916-5.736-5.1146-8.164-.5773-1.401-.876-2.902-.8795-4.417v-4.78H82.13V340.336c.4015 1.74 4.2542 6.376 6.4338 9.397 1.4723 2.027 4.2542 4.599 7.5811 5.048 3.1835.478 4.7991-.516 2.7533-2.906ZM123.114 339.122c.235-.136.439-.318.602-.536.65-.898.134-1.386-.344-2.103-.574-.995-1.054-2.042-1.434-3.126-.392-.956-.899-2.658-.899-2.658v-6.539h-8.384v7.983c.43 1.912 2.132 3.661 3.241 5.143.86 1.147 3.078 1.731 4.417 2.017.586.151 1.195.193 1.797.125.351-.036.692-.14 1.004-.306Z" fill="#FFA8A7"/><path d="M83.7934 210.186c-6.5008 14.197.239 64.196.239 64.196-.2008 2.304-2.868 6.835-3.824 16.969-1.1568 11.978 1.8164 42.064 1.8164 42.064 1.2796.741 2.7208 1.159 4.1984 1.217 1.4777.058 2.9473-.245 4.2813-.883 0 0 7.9826-45.295 9.4835-57.207 1.31-10.392 3.824-33.24 3.824-33.24l5 33.231c-1.039 3.352-1.791 6.787-2.247 10.267-.678 6.998 6.109 39.617 6.109 39.617s2.868 1.061 8.384.248c0 0 2.4-43.278 3.031-51.719 1.061-14.168-.555-58.431-3.155-66.815l-37.1406 2.055Z" fill="#37474F"/><path d="m103.831 243.292 2.103-13.183s8.929-1.855 12.973-5.659c0 0-4.244 5.286-10.516 7.017l-2.371 10.143 2.123 30.114-4.312-28.432ZM90.5332 338.902v-1.214c.803.353 2.6768 7.485 6.0132 10.516 2.6482 2.418 6.2716 5.21 7.1896 7.906.917 2.696-5.0386 4.35-7.5146 3.919-2.868-.516-7.8583-2.542-9.1107-4.416-1.2523-1.874-1.8451-4.646-2.868-6.023-1.0229-1.377-3.3651-2.906-3.9387-4.474-.3059-.87.0574-2.792.478-4.407.4206-1.616.8126-3.117 1.3193-2.983v.956c1.1965.938 2.6767 1.44 4.1968 1.424 1.2619-.019 4.2447-.267 4.2351-1.204ZM121.039 330.699c.43 0 .956.67 1.912 1.712 1.438 1.452 3.109 2.654 4.943 3.556 3.145 1.577 9.263 3.996 12.036 5.248 1.73.775 1.644 2.868-.144 4.054-1.787 1.185-6.099 2.046-11.28.889-2.868-.631-6.501-3.241-8.834-3.097-2.333.143-6.692.105-8.394-1.081-1.701-1.185-1.032-3.709-.545-5.879.536-2.371 1.195-6.071 1.979-5.908v.822c1.014 1.53 6.224 2.151 8.442 1.023l-.115-1.339Z" fill="#263238"/><path d="M109.127 160.493c2.039-.179 4.089.166 5.956 1.003 1.868.836 3.49 2.137 4.713 3.777 3.356 4.379 12.189 22.313 12.189 22.313s19.398-1.3 20.325-2.418c.927-1.119.411-3.394.153-4.647-.258-1.252-.679-4.024-.956-4.78-.488-1.367 1.529-.956 2.715.278 1.185 1.233 1.711 3.757 2.304 4.187.593.43 5.095-4.78 7.275-7.256 2.18-2.476 3.212-4.245 4.675-3.212 1.061.745.382 2.227-1.186 4.369-.732.914-1.409 1.872-2.026 2.868-.182.392.392.698.621.898.43.383 1.176 1.004 1.233 1.597-.009.32.01.64.058.956.2.717 1.09 1.051 1.338 1.749.182.507 0 1.071.077 1.597.067.334.258.64.315.956.023.338-.028.677-.148.994-.121.317-.308.604-.55.841-1.539 1.826-3.633 2.524-5.65 3.643-1.673.956-3.394 1.329-5.325 2.189-1.931.86-25.506 6.96-29.033 5-3.528-1.96-17.055-23.202-17.055-23.202-5.278-8.748-2.018-13.7-2.018-13.7Z" fill="#FFA8A7"/><path d="M95.2558 160.876c-8.3267.573-8.9099 4.598-10.994 8.996-1.5965 3.355-1.0707 7.351.1434 10.85l5.2676 16.682s-2.7246 6.578-5.8794 12.782c14.5694 8.136 32.7626 3.824 37.1406-2.074.191-1.262-.956-11.1-1.625-17.533 2.562-6.434 3.241-10.516 2.16-14.771-2.017-7.896-9.818-15.592-13.269-15.296l-12.9442.364Z" fill="#BA68C8"/><path d="m82.1013 127.521 2.5238 4.053c-.2576.179-.5488.304-.856.367-.3071.063-.6239.063-.9312.001-.3073-.063-.5987-.187-.8567-.365-.2581-.178-.4774-.407-.6447-.672-.3293-.555-.4336-1.215-.2914-1.844.1423-.63.5202-1.181 1.0562-1.54Z" fill="#263238"/><path d="M114.175 127.368c1.969 1.157 4.398 6.109 4.159 16.5-.201 8.796-3.06 10.975-4.484 11.597-1.424.621-4.197.248-6.883-.201v5.287s3.709 4.311 3.48 6.692c-.23 2.38-5.363 2.992-8.834.631-2.2651-1.62-4.2101-3.646-5.7358-5.975v-12.763s-1.8068 2.419-4.78.449c-2.9731-1.969-3.0783-6.845-1.3575-8.604 1.7208-1.759 5.4397-1.195 6.128 1.224 0 0 4.2833.153 9.9903-2.973 2.22-1.187 4.129-2.879 5.574-4.94 1.445-2.061 2.385-4.433 2.743-6.924Z" fill="#FFA8A7"/><path d="M107.521 141.65c.004.218-.057.432-.174.615-.117.184-.286.328-.485.417-.199.088-.419.116-.634.08-.214-.037-.414-.135-.573-.284-.159-.148-.27-.34-.321-.552-.051-.212-.038-.434.037-.638.074-.204.207-.382.382-.512.175-.129.385-.204.602-.215.148-.006.296.019.435.071.139.052.266.131.374.232.108.101.196.223.257.358.061.135.095.28.1.428Z" fill="#263238"/><path d="m108.802 149.136 2.572.822c-.043.175-.121.34-.23.483-.108.144-.245.265-.401.354-.157.09-.33.146-.509.167-.179.02-.36.004-.533-.048-.354-.118-.647-.371-.815-.704-.169-.333-.199-.719-.084-1.074Z" fill="#F28F8F"/><path d="m116.632 138.257-2.275-1.549c.094-.151.217-.282.364-.384.146-.102.311-.173.485-.209.175-.035.355-.035.529.001.175.036.34.107.486.21.305.206.518.522.594.882.077.36.011.736-.183 1.049ZM116.078 140.857c.011.147-.007.295-.053.436-.046.14-.12.269-.217.381-.097.111-.216.202-.348.267-.133.065-.277.103-.425.111-.228.021-.457-.027-.657-.138-.201-.11-.364-.279-.468-.483-.104-.204-.145-.434-.117-.662.028-.227.123-.441.274-.613.15-.173.349-.297.571-.355.221-.059.455-.05.671.025.217.076.405.214.542.398.137.184.216.404.227.633Z" fill="#263238"/><path d="m110.676 140.216.172 6.664 3.509-1.081-3.681-5.583ZM106.967 155.264c-2.868-.373-8.6042-2.046-9.5602-4.35.3585 1.168 1.0698 2.197 2.0363 2.945 1.7399 1.491 7.5239 3.164 7.5239 3.164v-1.759Z" fill="#F28F8F"/><path opacity=".1" d="M98.9842 211.763c-3.9674-.956-7.9921-5.277-6.1757-9.512.5177-1.189 1.4065-2.178 2.5334-2.82.4155-.236.895-.336 1.3704-.285.4754.052.9224.252 1.2777.572-1.912-1.252-5.1911-7.342-5.6308-9.56l-2.2466-7.495c-.2091-1.715-.056-3.454.4493-5.105l-5.8603-6.769-1.0803.746c-.956 2.935-.2294 6.252.7839 9.187l5.2676 16.682s-2.7246 6.578-5.8794 12.782c4.7408 2.546 9.9723 4.046 15.3418 4.399 5.3698.353 10.7528-.45 15.7858-2.353-5.294.849-10.702.691-15.9368-.469Z" fill="#000"/><path d="m167.797 378.088-18.948-10.936c-1.969-1.167-3.069-4.092-3.069-7.859l-.076-83.105 19.12 11.023-.077 83.373c-.028 3.671 1.157 6.29 3.05 7.504Z" fill="#BA68C8"/><path opacity=".2" d="m167.797 378.088-18.948-10.936c-1.969-1.167-3.069-4.092-3.069-7.859l-.076-83.105 19.12 11.023-.077 83.373c-.028 3.671 1.157 6.29 3.05 7.504Z" fill="#000"/><path d="m167.931 378.165-.134-.077c-1.912-1.214-3.078-3.824-3.078-7.504l.076-83.373-19.12-11.023 16.51-9.627.153-.086 2.343-1.357 2.638-1.836.105-.067.105-.076c.144-.096.259-.201.383-.296l.153-.106.459-.344.439-.344c.122-.115.246-.22.373-.315l.144-.115.134-.115c.248-.191.487-.401.717-.602l.363-.335.134-.143c.449-.411.898-.86 1.309-1.31l.153-.143c.172-.185.335-.367.488-.545.081-.086.155-.179.22-.277.077-.073.148-.153.21-.239v-.067l.057-.086.106-.115.506-.641c.134-.191.278-.391.402-.592l.105-.125v-.057c.182-.258.344-.516.507-.774.162-.258.277-.45.411-.679l.048-.086c.105-.21.219-.402.325-.612l.162-.296c.134-.258.258-.516.373-.784l.21-.488c.084-.159.154-.326.211-.497.07-.134.128-.275.172-.42.047-.134.114-.287.162-.421.124-.335.23-.679.344-1.033.086-.277.182-.573.258-.87v-.124c.096-.315.163-.64.23-.956v-.105c0-.249.115-.507.162-.774.067-.364.144-.784.192-1.176V245.663c.005-.035.005-.07 0-.105-.005-.089-.005-.178 0-.268.047-.468.086-.956.124-1.376v-.736c0-.689.019-1.386.057-2.094V239.105c.005-.06.005-.121 0-.181.005-.061.005-.122 0-.182v-.258c0-.354-.048-.698-.076-1.014v-.057c0-.306-.067-.593-.096-.87-.173-1.292-.438-2.57-.793-3.824-.22-.765-.459-1.463-.67-2.122-.558-1.498-.949-3.053-1.166-4.637 0-.315-.076-.64-.105-.956-.029-.315 0-.736-.067-1.128v-.172c-.009-.092-.009-.185 0-.277-.018-.201-.018-.402 0-.602 0-4.408 2.677-9.56 5.994-11.472.329-.194.683-.342 1.052-.44.237-.065.481-.103.726-.115.235-.029.473-.029.708 0 .113.015.225.041.334.077.334.099.655.237.956.411l19.455 11.08c.113.063.221.133.325.21 1.128.86 1.759 2.495 1.759 4.617 0 .287 0 .584-.057 1.042v.125c-.132 2.759-.575 5.494-1.32 8.154-.162.679-.325 1.358-.478 2.075-.066.239-.114.487-.162.727-.172.726-.325 1.481-.449 2.294-.048.258-.086.535-.125.803l13.384-7.581 19.12 11.023v21.93c0 6.157-.468 10.268-1.424 12.562-.669 1.587-1.692 2.581-4.054 3.939-1.853 1.144-3.978 1.774-6.156 1.826-.689 0-1.339.124-1.998.21l-.775.134c-.248.048-.487.095-.745.162-.459.106-.956.258-1.415.411l-.383.144c-.721.279-1.426.598-2.112.956-.088.035-.171.08-.249.134h-.067l-.115.057c-.258.115-.554.258-.86.43-2.834 1.763-5.24 4.134-7.046 6.941-.956 1.421-1.797 2.918-2.514 4.474-.683 1.472-1.264 2.989-1.74 4.541l1.052-1.119c.995-1.119 2.054-2.179 3.174-3.174.933-.807 1.942-1.524 3.011-2.141 1.53-.88 2.753-1.587 3.662-1.023l18.947 11.29.22.163c.053.05.101.104.144.162.035.024.061.057.076.096.056.061.104.129.144.201v.048c.058.091.109.187.153.286.487 1.033.812 2.868.956 5.947v26.232l-62.427 36.042c-1.015.623-2.16 1.002-3.346 1.109-.375.033-.753.033-1.128 0-.125-.007-.247-.032-.364-.077-.45-.131-.878-.327-1.271-.583Z" fill="#BA68C8"/><path opacity=".1" d="m215.817 297.249 18.929 11.29c-.899-.573-2.132.153-3.662 1.033-1.068.613-2.074 1.331-3.002 2.141-1.127.987-2.19 2.044-3.183 3.165-2.187 2.536-4.705 4.768-7.485 6.634-.373.268-.813.545-1.224.784-6.931 4.006-12.572-.258-12.572-9.502.035-2.752.476-5.484 1.31-8.107.354-.373.688-.746 1.033-1.1.994-1.119 2.054-2.179 3.174-3.174.93-.807 1.935-1.524 3.001-2.141 1.54-.88 2.782-1.587 3.681-1.023ZM204.02 242.422l13.451-7.59 19.12 11.032-16.434 9.484-4.942 2.581H215.11l-.354.153-.182.067-.822.334-.459.163-.124.048c-.268.086-.526.181-.774.248l-.536.144c-.277.076-.535.124-.793.172h-.086l-.354.057c-.317.043-.636.069-.956.076h-.306c-.372-.004-.744-.043-1.109-.114l-.191-.048c-.282-.077-.557-.176-.822-.296-.079-.027-.153-.066-.22-.115-.24-.137-.47-.291-.689-.459h-.047l-.163-.143c-.247-.229-.471-.482-.669-.756l-.096-.114c-.516-.796-.897-1.671-1.128-2.591l-.048-.163c-.124-.487-.21-.956-.296-1.481v-.259c-.086-.573-.153-1.185-.191-1.806-.057-.823-.077-1.54-.077-2.257-.026-2.129.108-4.257.402-6.367ZM164.795 287.211l-19.12-11.023 16.51-9.627.144-.086h.057l2.342-1.357 2.648-1.836.096-.067.105-.076c.144-.096.258-.201.383-.296l.143-.106.468-.344.44-.344c.121-.115.246-.22.373-.315l.143-.115.134-.115c.249-.191.488-.401.717-.602l.364-.335.133-.143c.45-.411.899-.86 1.31-1.31l.153-.143c.172-.185.335-.367.488-.545.081-.086.155-.179.22-.277.076-.077.133-.163.2-.239l.058-.067.067-.077.095-.124c.172-.21.354-.421.507-.641l.411-.583.096-.134v-.057c.181-.258.344-.516.506-.774.163-.258.277-.45.411-.679v-.096c.115-.2.23-.392.335-.602.063-.095.12-.194.172-.296.115-.268.249-.526.363-.784l.211-.488c.076-.153.143-.315.219-.487.077-.172.115-.278.163-.43.048-.153.115-.287.163-.421.124-.344.229-.669.344-1.033.086-.277.181-.573.258-.87v-.124c.076-.306.162-.64.229-.956v-.095c.048-.268.105-.517.153-.784.067-.364.144-.784.191-1.176V245.663c.006-.035.006-.07 0-.105v-.277c.058-.478.096-.956.125-1.367v-.736c0-.689.019-1.387.057-2.094v-2.161c.005-.06.005-.121 0-.181v-.258c0-.354-.048-.698-.076-1.014v-.067l-.086-.86c-.173-1.292-.438-2.57-.794-3.824-.21-.774-.449-1.472-.669-2.122-.558-1.498-.95-3.053-1.166-4.637 0-.315-.077-.64-.106-.956-.028-.315 0-.726-.057-1.128V223.417c-.018-.2-.018-.402 0-.602 0-4.407 2.677-9.56 5.994-11.472.329-.194.683-.342 1.052-.44.237-.065.481-.103.726-.115.235-.038.473-.038.708 0 .113.016.225.041.334.077.334.099.655.237.956.411l19.388 11.09c-.406-.235-.861-.372-1.329-.402-.34-.013-.68.016-1.013.086-.556.125-1.089.338-1.578.631-.584.348-1.126.761-1.615 1.233-1.337 1.318-2.4 2.887-3.126 4.618-.172.373-.306.755-.45 1.147-.181.549-.331 1.107-.449 1.673-.21.909-.319 1.839-.325 2.772v.975c.039 1.551.261 3.091.66 4.589.057.249.133.488.2.727.153.487.306.956.459 1.434.22.659.459 1.348.679 2.122.076.268.143.536.21.803.067.268.134.564.211.861.212.997.368 2.006.468 3.021v.047c-.009.169-.009.338 0 .507v1.138c.01.117.01.236 0 .353V253.311c0 .354 0 .698-.048 1.052v.726c0 .45-.067.909-.124 1.368 0 .219-.057.43-.086.659v.182l-.201 1.195-.172.774v.096c0 .181-.076.363-.134.554-.057.191-.095.364-.143.526-.048.163 0 .153-.048.23-.048.076-.143.43-.201.65-.105.344-.22.688-.344 1.023-.124.334-.22.573-.325.85-.105.278-.277.66-.421.956l-.391.803c-.077.144-.153.306-.239.45l-.239.449-.058.096c-.06.118-.127.233-.201.344l-.067.115c-.041.074-.089.144-.143.21-.162.268-.325.526-.497.784v.057l-.096.134c-.063.1-.134.196-.21.287-.061.099-.128.195-.201.287l-.181.239c-.101.142-.21.28-.325.411l-.096.124-.105.143-.22.258-.067.077c0 .057-.096.124-.153.182l-.248.277c-.067.086-.153.172-.239.267l-.144.144c-.415.46-.856.897-1.319 1.31l-.134.143-.373.335c-.22.21-.459.411-.707.611l-.134.106-.067.066-.067.058-.373.306-.956.688-.143.115-.383.287-.21.143-2.648 1.836-2.342 1.357-.077.057-.153.077-16.338 9.426Z" fill="#000"/><mask id="a" style="mask-type:luminance" maskUnits="userSpaceOnUse" x="204" y="191" width="111" height="151"><path d="M216.209 313.511c.201-.115.43-.278.679-.45 2.091-1.411 3.982-3.1 5.621-5.019.851-.956 1.606-1.72 2.466-2.552l.134-.134.249-.239.115-.115c.43-.401.85-.774 1.271-1.137l7.925 4.732c.163.1.305.23.421.382.068.081.129.167.182.258v.058c.05.086.095.175.133.267v.086l.115.297v.114c.041.107.076.215.105.326v.143c0 .048.067.258.105.401v.125c0 .172.067.353.106.554 0 .22.067.45.105.689v.057l.086.688v.23l.057.592v.306c0 .096 0 .392.048.603.048.21 0 .239 0 .363v26.538l78.392-45.276v-12.361c.005-.073.005-.146 0-.22v-92.024l-16.443 9.493-.306.181-.191.115-3.241 2.008c-1.298.858-2.546 1.79-3.738 2.791l-.077.067-.2.163c-.297.248-.574.506-.851.765l-.077.076-.353.344c-.259.249-.507.497-.756.755l-.468.507c-.23.258-.459.516-.679.784-.22.268-.287.354-.449.574-.163.219-.43.554-.631.831l-.344.507-.077.134-.095.134c-.163.248-.325.497-.469.745-.143.249-.22.373-.315.574l-.086.143c-.287.536-.574 1.1-.822 1.673l-.067.144c-.106.239-.22.478-.316.726-.095.249-.191.507-.277.765l-.067.191c-.105.297-.21.583-.296.889-.086.306-.182.622-.268.956-.086.335-.163.65-.239.956-.077.306-.134.631-.191.956-.058.325-.125.689-.172 1.042v.067c0 .287-.086.574-.125.87-.038.297-.076.765-.114 1.176v.23c0 .22 0 .439-.048.659V226.887c-.075 3.522.508 7.027 1.721 10.335.802 2.144 1.247 4.404 1.319 6.692v.105c0 .315.048.612.048.88-.046 2.338-.649 4.632-1.759 6.692-.944 1.953-2.41 3.607-4.235 4.78-.289.161-.59.302-.899.42l-.153.058c-.273.093-.555.157-.841.191h-.153c-.27.029-.543.029-.813 0h-.057c-.272-.044-.537-.128-.784-.249l-.077-.048-8.269-4.856c0-.249 0-.488.067-.736.067-.249.067-.574.105-.861.077-.592.153-1.166.249-1.72.095-.555.172-1.014.267-1.501.058-.258.105-.507.153-.746.23-1.061.469-2.122.746-3.26.826-2.919 1.263-5.934 1.3-8.967 0-2.868-.248-4.159-1.023-4.618l-9.426-5.439-16.003 9.225-6.587-3.824v7.648l-5.736 3.336-1.836 1.052 7.648 4.398v21.93c0 6.157-.468 10.268-1.424 12.562-.669 1.578-1.692 2.572-4.054 3.939-1.856 1.145-3.985 1.775-6.166 1.826-.669 0-1.338.124-1.979.21l-.784.134c-.239.048-.487.096-.745.162-.479.114-.951.251-1.415.412h-.096l-.287.095c-.722.278-1.427.597-2.112.956l-.259.124H217.155c-.297.128-.587.272-.87.431-2.829 1.761-5.23 4.132-7.026 6.94-.459.669-.889 1.367-1.3 2.084l-.163.316c-.354.631-.688 1.271-.956 1.912l-.067.153c-.684 1.471-1.266 2.988-1.74 4.541-.429 1.4-.749 2.832-.956 4.283l8.375 4.837c.591.292 1.248.426 1.906.389.658-.037 1.296-.243 1.851-.599Z" fill="#fff"/></mask><g mask="url(#a)"><path d="m237.729 287.297-20.354-11.749.45-.622.047-.057.22-.315c.325-.478.631-.956.956-1.463l.086-.153c.297-.526.583-1.099.861-1.702.057-.143.124-.286.181-.439v-.096c.144-.344.316-.755.478-1.214.077-.201.144-.402.22-.622v-.124c.115-.344.23-.688.325-1.042.096-.354.163-.564.239-.86.077-.297.153-.641.239-.956.086-.316.134-.631.191-.956.058-.325.125-.603.173-.899v-.143c.057-.287.105-.593.153-.899.047-.306.047-.354.076-.526v-.191c.21-1.53.335-3.136.44-4.876v-.191l.105-4.694v-22.322l20.277 11.873v22.332l-.105 4.704v.182c-.087 1.739-.22 3.346-.421 4.866v.2c0 .182-.048.354-.077.536-.028.181-.086.602-.143.889v.134c-.048.315-.105.602-.163.908-.057.306-.133.621-.21.956-.076.334-.143.65-.22.956-.076.306-.162.583-.239.86-.076.277-.21.698-.334 1.033v.143c-.067.201-.144.421-.22.621-.153.44-.335.861-.478 1.215l-.048.086-.172.439c-.277.593-.564 1.167-.86 1.712l-.087.153c-.277.478-.583.956-.908 1.462-.068.105-.145.204-.229.297v.067l-.449.487ZM222.824 326.12l.058-18.431-.287.296c.841-.956 1.616-1.73 2.457-2.553l.143-.133.249-.239.172-.096c1.608-1.548 3.392-2.903 5.315-4.034l.211-.105h.047l.144-.086c.459-.259.956-.488 1.367-.708.124-.067.258-.115.382-.172l.134-.067c.306-.115.631-.258.956-.363.172-.077.335-.115.488-.172h.076c.277-.067.545-.144.794-.191.248-.048.382-.077.564-.096.235-.019.472-.019.707 0 .179-.01.357-.01.536 0 .209.018.417.053.621.105h.086l.392.096c.2.07.392.159.574.267.204.1.4.219.583.354.221.158.429.334.621.526.109.115.211.236.306.363l.067.096.057.067c.099.125.192.256.278.392.121.183.23.375.325.573.095.182.181.344.258.526.076.182.191.459.287.707.095.249.124.364.181.555.058.191.163.535.239.822l.115.478v.077c.067.315.143.64.201.956v.392c.21 1.348.363 2.868.468 4.655v.077l.105 4.264v22.638l-20.277-11.836ZM212.06 313.683l-20.009-11.587c-1.329-.707-2.103-2.562-2.103-5.019.084-2.914 1-5.743 2.638-8.155l.383-.535c-.096.153-.211.306-.306.449l20.343 11.75c-.053.066-.101.136-.143.21-1.644 2.405-2.56 5.233-2.639 8.145 0 2.304.708 3.948 1.836 4.742Z" fill="#BA68C8"/><path d="m237.729 287.297-20.354-11.749.45-.622.047-.057.22-.315c.325-.478.631-.956.956-1.463l.086-.153c.297-.526.583-1.099.861-1.702.057-.143.124-.286.181-.439v-.096c.144-.344.316-.755.478-1.214.077-.201.144-.402.22-.622v-.124c.115-.344.23-.688.325-1.042.096-.354.163-.564.239-.86.077-.297.153-.641.239-.956.086-.316.134-.631.191-.956.058-.325.125-.603.173-.899v-.143c.057-.287.105-.593.153-.899.047-.306.047-.354.076-.526v-.191c.21-1.53.335-3.136.44-4.876v-.191l.105-4.694v-22.322l20.277 11.873v22.332l-.105 4.704v.182c-.087 1.739-.22 3.346-.421 4.866v.2c0 .182-.048.354-.077.536-.028.181-.086.602-.143.889v.134c-.048.315-.105.602-.163.908-.057.306-.133.621-.21.956-.076.334-.143.65-.22.956-.076.306-.162.583-.239.86-.076.277-.21.698-.334 1.033v.143c-.067.201-.144.421-.22.621-.153.44-.335.861-.478 1.215l-.048.086-.172.439c-.277.593-.564 1.167-.86 1.712l-.087.153c-.277.478-.583.956-.908 1.462-.068.105-.145.204-.229.297v.067l-.449.487ZM222.824 326.12l.058-18.431-.287.296c.841-.956 1.616-1.73 2.457-2.553l.143-.133.249-.239.172-.096c1.608-1.548 3.392-2.903 5.315-4.034l.211-.105h.047l.144-.086c.459-.259.956-.488 1.367-.708.124-.067.258-.115.382-.172l.134-.067c.306-.115.631-.258.956-.363.172-.077.335-.115.488-.172h.076c.277-.067.545-.144.794-.191.248-.048.382-.077.564-.096.235-.019.472-.019.707 0 .179-.01.357-.01.536 0 .209.018.417.053.621.105h.086l.392.096c.2.07.392.159.574.267.204.1.4.219.583.354.221.158.429.334.621.526.109.115.211.236.306.363l.067.096.057.067c.099.125.192.256.278.392.121.183.23.375.325.573.095.182.181.344.258.526.076.182.191.459.287.707.095.249.124.364.181.555.058.191.163.535.239.822l.115.478v.077c.067.315.143.64.201.956v.392c.21 1.348.363 2.868.468 4.655v.077l.105 4.264v22.638l-20.277-11.836ZM212.06 313.683l-20.009-11.587c-1.329-.707-2.103-2.562-2.103-5.019.084-2.914 1-5.743 2.638-8.155l.383-.535c-.096.153-.211.306-.306.449l20.343 11.75c-.053.066-.101.136-.143.21-1.644 2.405-2.56 5.233-2.639 8.145 0 2.304.708 3.948 1.836 4.742Z" fill="#263238"/><path d="m212.232 313.75-.134-.077c-1.128-.793-1.835-2.438-1.835-4.703.078-2.913.994-5.741 2.638-8.145.042-.074.09-.145.144-.211l-20.344-11.749c.096-.143.21-.296.306-.449.258-.335.526-.65.803-.956.13-.151.267-.294.411-.431.141-.155.294-.299.459-.43.393-.365.826-.686 1.29-.956.171-.099.346-.188.526-.267l.23-.096h.057c.845-.451 1.74-.8 2.667-1.042l.325-.077c.839-.17 1.689-.282 2.543-.334 3.011-.105 5.942-.998 8.499-2.591l.669-.411c.201-.115.383-.239.574-.373.191-.134.296-.181.44-.277h.057l.707-.516.67-.526.124-.096.105-.095.077-.067.286-.249c.086-.076.192-.153.278-.239.086-.086.344-.306.516-.478l.239-.239.105-.115.421-.439c.172-.182.344-.373.506-.564l.067-.077.278-.325c.124-.172.277-.344.401-.526l20.363 11.759.363-.497v-.067c.085-.092.161-.191.23-.296.325-.497.631-.956.908-1.463l.086-.153c.296-.545.583-1.118.86-1.711l.172-.44.048-.086c.143-.354.325-.774.478-1.214.077-.201.153-.421.22-.621v-.144c.124-.334.229-.679.335-1.032.105-.354.153-.564.239-.861.086-.296.153-.64.219-.956.067-.315.144-.621.211-.956.067-.334.114-.592.162-.908v-.134c.058-.287.096-.583.144-.889.047-.306.047-.354.076-.535v-.201c.201-1.52.335-3.126.421-4.866v-.182l.105-4.703v-22.399L222.7 230.195l8.317-4.78 4.293-2.476 3.824-2.218 1.491-.841c.392-.191.746-.402 1.109-.574 1.269-.695 2.609-1.253 3.996-1.663l.421-.105c.432-.103.877-.136 1.319-.096.249 0 .383.22.574.335l20.516 11.663c.197.129.366.296.497.491.132.196.222.416.267.647 0 .162.086.353.125.554.038.201.057.43.086.679v2.266c0 .908 0 1.73-.115 2.514v.583c0 .191 0 .373-.067.564-.067.191 0 .363-.086.555-.086.191-.048.363-.077.545-.066.353-.124.697-.191 1.061-.067.363-.153.698-.22 1.042-.009.024-.009.052 0 .076 1.645-3.679 2.533-7.652 2.61-11.682 0-.564 0-1.128-.057-1.606-.096-3.066-.684-6.097-1.74-8.977-.908-2.386-1.352-4.923-1.31-7.476 0-4.723 0-7.323 10.019-13.088l16.357-9.368 20.344 11.749v83.229c0 6.931-4.226 15.009-9.417 18.011l-62.426 36.041v-22.619l-.106-4.263v-.077c-.105-1.768-.258-3.308-.468-4.656v-.391c-.057-.345-.134-.67-.201-.956v-.077l-.114-.478c-.077-.287-.144-.554-.239-.822-.096-.268-.115-.373-.182-.555-.067-.181-.182-.487-.287-.707-.105-.22-.162-.344-.258-.526-.095-.198-.203-.39-.325-.573-.086-.136-.178-.267-.277-.392l-.058-.067-.067-.096c-.094-.127-.197-.248-.306-.363-.192-.192-.4-.368-.621-.526-.183-.135-.378-.254-.583-.354-.182-.108-.374-.197-.574-.267l-.392-.096h-.086c-.204-.052-.411-.087-.621-.105-.178-.01-.357-.01-.535 0-.236-.019-.472-.019-.708 0-.182 0-.363.057-.564.095-.201.039-.516.125-.793.192h-.077c-.153.057-.315.095-.487.172-.325.105-.651.248-.956.363l-.134.067c-.125.057-.258.105-.383.172-.459.22-.908.449-1.367.707l-.143.086h-.048l-.21.106c-1.949 1.155-3.752 2.538-5.373 4.12l-.124.115-.249.239-.143.134c-.842.822-1.616 1.644-2.457 2.552-1.639 1.919-3.53 3.607-5.621 5.019-.249.172-.469.335-.679.449-.559.346-1.185.571-1.836.66-.401.077-.813.077-1.214 0-.374-.063-.733-.192-1.061-.382Z" fill="#37474F"/><path d="m243.168 242.059-20.277-11.873 8.318-4.78 4.292-2.476 3.824-2.218 1.491-.841c.392-.192.746-.402 1.109-.574 1.269-.696 2.609-1.253 3.996-1.664l.421-.105c.432-.103.877-.135 1.319-.095.249 0 .383.22.574.334l20.267 11.673c-.072-.04-.149-.069-.229-.086-.098-.049-.207-.072-.316-.067-.317-.047-.639-.047-.956 0-.269.033-.535.091-.793.172-2.317.755-4.533 1.793-6.597 3.088l-3.824 2.218-4.302 2.486-8.317 4.808Z" fill="#000"/><path d="M269.401 264.745c-1.912-1.912-2.868-5.134-2.868-9.025-.01-.558.013-1.117.067-1.673v-.066c0-.956.095-1.846.2-2.868 0-.287.067-.564.106-.851.067-.593.153-1.176.248-1.721.096-.545.172-1.013.268-1.501.057-.258.105-.507.153-.746.229-1.061.468-2.122.746-3.26.181-.717.344-1.405.497-2.093 1.634-3.656 2.515-7.603 2.59-11.606 0-.564 0-1.119-.067-1.597-.091-3.072-.675-6.109-1.73-8.996-.904-2.383-1.349-4.917-1.31-7.466 0-4.713 0-7.313 10.019-13.097l16.357-9.359 20.344 11.749-16.424 9.483c-10.019 5.736-10.019 8.384-10.019 13.098-.05 2.553.394 5.092 1.31 7.475 1.047 2.886 1.631 5.919 1.73 8.987 0 .478.067 1.032.058 1.587 0 9.244-5.631 20.028-12.581 24.024-3.767 2.189-7.295 2.008-9.694-.478ZM213.006 300.624l-20.343-11.749c.095-.144.21-.297.306-.45.258-.334.525-.65.803-.956.129-.15.267-.294.411-.43.141-.156.294-.3.459-.43.393-.366.826-.686 1.29-.956.17-.099.346-.188.526-.268l.229-.086h.058c.845-.451 1.74-.8 2.667-1.042l.325-.076c.839-.171 1.689-.283 2.543-.335 3.011-.105 5.942-.998 8.499-2.591l.669-.411c.201-.115.382-.239.574-.373.149-.086.293-.182.43-.287h.057l.708-.516.678-.526.115-.095.105-.096.086-.067.278-.248c.086-.077.191-.153.277-.239.086-.086.344-.306.516-.478l.239-.239c.033-.04.072-.076.115-.105l.411-.45c.172-.181.344-.373.507-.564l.066-.076.278-.325c.124-.172.277-.344.401-.526l20.373 11.759-.086.095c-.134.192-.278.373-.421.564-.143.192-.182.201-.268.306l-.076.077c-.306.353-.612.688-.956 1.004l-.191.191c-.048.057-.106.105-.144.162l-.526.478-.554.478-.077.077-.239.181c-.439.373-.898.717-1.367 1.052 0 0-.057 0-.105.067-.536.382-1.091.736-1.663 1.061l-.593.306-.698.354c-1.555.809-3.23 1.361-4.962 1.634l-.879.115h-.44l-.812.077c-1.211.043-2.411.248-3.566.612-.354.114-.727.258-1.138.43-.258.114-.545.248-.832.401l-.239.096c-.181.077-.356.167-.525.268-.467.279-.909.599-1.32.956-.147.123-.287.253-.42.391-.144.134-.287.287-.421.44-.18.179-.346.37-.497.574-.106.121-.205.249-.296.382-.163.182-.268.287-.345.402Z" fill="#000"/></g><mask id="b" style="mask-type:luminance" maskUnits="userSpaceOnUse" x="216" y="87" width="100" height="179"><path d="M236.581 237.088V215.1l.22-6.692v-.813c0-.43.077-.841.124-1.242.011-.206.037-.41.077-.612v-.191c0-.392.096-.784.143-1.157.048-.373.077-.516.125-.755.076-.421.133-.832.22-1.234v-.134c0-.162.066-.334.105-.497.114-.554.258-1.09.392-1.625 0 0 0-.105.047-.191.163-.602.373-1.224.584-1.836l.086-.258c.191-.516.411-1.023.611-1.52 0-.095.096-.21.153-.315v-.077c.22-.459.44-.956.689-1.376l.191-.325c.289-.519.608-1.02.956-1.501.744-1.085 1.585-2.1 2.514-3.031l.077-.076c.392-.383.841-.794 1.319-1.186l.096-.095c1.01-.821 2.084-1.559 3.212-2.209 1.21-.72 2.491-1.312 3.824-1.768.67-.222 1.353-.4 2.046-.536.867-.147 1.741-.246 2.619-.296 1.935-.049 3.832-.543 5.545-1.444h.048c.258-.106.51-.227.755-.363 1.823-1.173 3.285-2.827 4.225-4.78.285-.535.538-1.088.756-1.654.646-1.588.986-3.285 1.003-5v-.831c.007-.074.007-.147 0-.22-.007-.187-.029-.372-.066-.555v-.22c0-.076-.077-.344-.115-.487-.038-.144-.048-.134-.067-.191-.019-.058-.105-.316-.172-.469l-.067-.134c-.06-.153-.133-.3-.22-.439-.014-.037-.037-.07-.067-.096-.086-.143-.182-.277-.287-.421-.105-.143 0 0-.048-.057l-.363-.363c-.136-.116-.283-.219-.44-.306l-8.69-5.01c-1.384 1.243-2.702 2.558-3.948 3.939-1.757 2.098-3.847 3.893-6.185 5.315-1.501.861-2.734 1.578-3.623 1.062l-8.404-4.857c-.057-1.912-.057-3.986 0-6.185v-18.518l-20.343-11.74 72.474-41.9106 26.376 15.2196-.048 97.751-16.433 9.483c-10.01 5.736-10.01 8.385-10.01 13.098-.047 2.552.394 5.089 1.3 7.476 1.06 2.882 1.647 5.916 1.74 8.986 0 .468.058 1.032.067 1.596-.139 5.288-1.605 10.456-4.263 15.029l-16.654 9.608c-.507-.317-.976-.693-1.396-1.119-1.854-1.912-2.868-5.124-2.868-9.015 0-.526 0-1.08.077-1.692v-.057c0-.956.086-1.846.2-2.868 0-.278.067-.574.106-.851.067-.603.153-1.176.248-1.721.096-.545.172-1.013.268-1.501.057-.258.105-.507.153-.746.22-1.061.468-2.122.755-3.26.818-2.92 1.252-5.935 1.291-8.967 0-2.868-.249-4.159-1.033-4.617l-9.416-5.44-16.013 9.254-6.578 3.824Z" fill="#fff"/></mask><g mask="url(#b)"><path d="m275.175 256.772-20.391-11.778c-.096-.048-.189-.103-.278-.162-1.137-.861-1.663-2.649-1.663-4.78-.022-.344-.022-.689 0-1.033v-.124c.145-2.759.59-5.493 1.329-8.155.325-1.367.669-2.868.956-4.407l4.416-2.553.173-.095.105-.058 3.48-1.864.095-.048c1.094-.544 2.225-1.011 3.384-1.395h.134l.45-.144c.178-.058.36-.102.544-.134h.106c.21-.057.43-.114.65-.153l.573-.076H270.414c.228.004.456.029.679.076h.086l.325.058c.264.071.523.16.774.268l.23.095c.683.364 1.27.885 1.711 1.52.039.055.074.112.105.172.209.301.388.621.536.956 0 .067.066.144.095.201v.067c.144.354.268.736.392 1.138l.077.305c.126.468.222.944.286 1.425l.048.22c.186 1.359.272 2.73.258 4.101-.039 4.162-.617 8.3-1.72 12.313-.731 2.667-1.173 5.404-1.32 8.165v.114c0 .44-.048.756-.048 1.042 0 2.132.622 3.767 1.75 4.627l.497.096ZM243.159 233.264 222.891 221.4v-21.931c-.068-3.217.137-6.434.612-9.617.708-3.91 1.778-5.096 4.857-6.874 1.86-1.145 3.991-1.775 6.175-1.826.717-.057 1.396-.124 2.085-.229l.544-.096.956-.2c.392-.115.813-.23 1.253-.383.182-.052.361-.116.535-.191.701-.256 1.384-.556 2.046-.899l.086-.047c.413-.167.812-.365 1.195-.593 3.767-2.17 7.304-6.444 9.694-11.702.162-.344.296-.688.44-1.023l-.507.507c.65-.64 1.281-1.329 1.912-2.036 2.191-2.523 4.705-4.748 7.476-6.616.391-.294.803-.559 1.233-.793 6.931-4.015 12.581.258 12.581 9.493-.08 4.27-1.057 8.475-2.868 12.342-2.399 5.267-5.937 9.56-9.703 11.711-.385.221-.784.416-1.195.583-.028.009-.058.009-.086 0-.663.359-1.346.678-2.046.956l-.536.191c-.411.143-.829.264-1.252.364-.335.086-.64.152-.956.21l-.554.095c-.679.096-1.367.182-2.084.23-2.182.045-4.312.676-6.167 1.826-3.078 1.768-4.158 2.954-4.856 6.864-.483 3.188-.694 6.412-.631 9.636v14.436l.029 7.476Z" fill="#BA68C8"/><path d="m245.023 170.636-20.363-11.778c-1.195-.726-1.74-3.747-1.74-11.338l-.086-21.796 20.344 11.749v21.911c0 7.648.64 10.564 1.854 11.243l-.009.009Z" fill="#BA68C8"/><path opacity=".2" d="m275.175 256.772-20.391-11.778c-.096-.048-.189-.103-.278-.162-1.137-.861-1.663-2.649-1.663-4.78-.022-.344-.022-.689 0-1.033v-.124c.145-2.759.59-5.493 1.329-8.155.325-1.367.669-2.868.956-4.407l4.416-2.553.173-.095.105-.058 3.48-1.864.095-.048c1.094-.544 2.225-1.011 3.384-1.395h.134l.45-.144c.178-.058.36-.102.544-.134h.106c.21-.057.43-.114.65-.153l.573-.076H270.414c.228.004.456.029.679.076h.086l.325.058c.264.071.523.16.774.268l.23.095c.683.364 1.27.885 1.711 1.52.039.055.074.112.105.172.209.301.388.621.536.956 0 .067.066.144.095.201v.067c.144.354.268.736.392 1.138l.077.305c.126.468.222.944.286 1.425l.048.22c.186 1.359.272 2.73.258 4.101-.039 4.162-.617 8.3-1.72 12.313-.731 2.667-1.173 5.404-1.32 8.165v.114c0 .44-.048.756-.048 1.042 0 2.132.622 3.767 1.75 4.627l.497.096ZM243.159 233.264 222.891 221.4v-21.931c-.068-3.217.137-6.434.612-9.617.708-3.91 1.778-5.096 4.857-6.874 1.86-1.145 3.991-1.775 6.175-1.826.717-.057 1.396-.124 2.085-.229l.544-.096.956-.2c.392-.115.813-.23 1.253-.383.182-.052.361-.116.535-.191.701-.256 1.384-.556 2.046-.899l.086-.047c.413-.167.812-.365 1.195-.593 3.767-2.17 7.304-6.444 9.694-11.702.162-.344.296-.688.44-1.023l-.507.507c.65-.64 1.281-1.329 1.912-2.036 2.191-2.523 4.705-4.748 7.476-6.616.391-.294.803-.559 1.233-.793 6.931-4.015 12.581.258 12.581 9.493-.08 4.27-1.057 8.475-2.868 12.342-2.399 5.267-5.937 9.56-9.703 11.711-.385.221-.784.416-1.195.583-.028.009-.058.009-.086 0-.663.359-1.346.678-2.046.956l-.536.191c-.411.143-.829.264-1.252.364-.335.086-.64.152-.956.21l-.554.095c-.679.096-1.367.182-2.084.23-2.182.045-4.312.676-6.167 1.826-3.078 1.768-4.158 2.954-4.856 6.864-.483 3.188-.694 6.412-.631 9.636v14.436l.029 7.476Z" fill="#000"/><path opacity=".2" d="m245.023 170.636-20.363-11.778c-1.195-.726-1.74-3.747-1.74-11.338l-.086-21.796 20.344 11.749v21.911c0 7.648.64 10.564 1.854 11.243l-.009.009Z" fill="#000"/><path d="m275.328 256.868-.153-.086-.325-.211c-1.128-.86-1.749-2.495-1.749-4.627 0-.287 0-.602.047-1.042v-.115c.147-2.76.589-5.497 1.32-8.164 1.103-4.013 1.681-8.152 1.72-12.313.014-1.372-.072-2.742-.258-4.101l-.047-.22c-.065-.481-.16-.957-.287-1.425l-.077-.306c-.124-.401-.248-.783-.392-1.137v-.067c0-.057-.057-.134-.095-.201-.147-.335-.327-.655-.536-.956-.03-.06-.066-.117-.105-.172-.441-.636-1.028-1.157-1.711-1.52l-.23-.096c-.251-.107-.51-.196-.774-.267l-.325-.058h-.086c-.223-.047-.451-.072-.679-.076H269.41l-.573.076c-.22 0-.44.096-.65.153h-.105c-.185.032-.367.076-.545.134l-.45.144h-.134c-1.159.384-2.29.851-3.384 1.395l-.095.048-3.48 1.864-.105.058-.172.095-4.417 2.553-12.141 7.036v-21.921c-.066-3.221.142-6.441.621-9.627.698-3.91 1.778-5.096 4.857-6.864 1.854-1.15 3.984-1.781 6.166-1.826.717 0 1.405-.134 2.084-.23l.554-.095c.316-.057.622-.124.956-.21.424-.1.842-.221 1.253-.364l.535-.191c.7-.278 1.383-.597 2.046-.956.028.009.058.009.086 0 .411-.167.81-.362 1.195-.583 3.767-2.189 7.304-6.444 9.703-11.711 1.811-3.867 2.788-8.072 2.868-12.342 0-9.235-5.65-13.508-12.581-9.493-.429.234-.842.499-1.233.793-2.771 1.868-5.285 4.093-7.476 6.616-.659.707-1.29 1.396-1.912 2.036-1.01 1.012-2.118 1.922-3.308 2.715l-.43.268-.497.296c-.574.325-1.09.631-1.577.851l-.469.191c-.14.061-.288.103-.44.125-.132.044-.271.067-.411.066-.254.009-.506-.054-.726-.181-1.214-.679-1.855-3.576-1.855-11.243v-21.911l-20.343-11.749 62.503-36.1564c.229-.1243.44-.2486.669-.3537.203-.1053.414-.1948.631-.2677l.631-.2008c.196-.0658.398-.1138.602-.1434.256-.047.515-.0757.775-.086 1.049-.047 2.087.23 2.973.7935l20.076 11.5775c.62.341 1.164.806 1.596 1.367.149.192.286.393.411.602.091.139.174.282.249.43.153.306.296.622.43.956.048.172.115.344.163.526.359 1.242.53 2.531.506 3.824v83.229l-16.433 9.484-.297.191-.2.115h-.048l-3.26 2.017c-1.3.853-2.548 1.782-3.738 2.782l-.086.067-.191.162-.851.765-.067.077c-.124.105-.249.229-.363.344-.115.115-.507.497-.746.755s-.325.335-.469.507c-.143.172-.468.516-.688.784l-.449.564-.631.841-.344.507-.077.133-.086.134c-.162.239-.334.488-.487.746-.153.258-.211.373-.306.564l-.077.153c-.296.535-.583 1.099-.841 1.673l-.057.143c-.115.239-.22.488-.316.727-.086.249-.182.497-.268.755l-.076.191-.287.88c-.096.315-.182.631-.268.956-.086.325-.162.65-.239.956-.076.306-.133.64-.191.956-.057.315-.124.698-.172 1.051v.058c0 .296-.095.593-.124.889-.029.296-.077.746-.115 1.166v.23c0 .22 0 .439-.048.659v2.123c-.07 3.521.513 7.025 1.721 10.334.801 2.144 1.247 4.404 1.319 6.692v.105c0 .306.048.622.058.88 0 4.407-2.696 9.56-6.004 11.472-.603.369-1.278.606-1.979.698-.143.014-.287.014-.43 0h-.067c-.089.014-.179.014-.268 0-.079.014-.16.014-.239 0l-.191-.048-.229-.067c-.061-.011-.12-.034-.172-.067-.115.014-.232-.006-.335-.057Z" fill="#BA68C8"/><path opacity=".3" d="m243.159 137.473-20.344-11.749 62.503-36.1564c.23-.1243.44-.2486.669-.3537.204-.1053.414-.1948.631-.2677l.631-.2008c.196-.0658.398-.1138.603-.1434.255-.047.514-.0757.774-.086 1.049-.047 2.087.23 2.973.7935l19.847 11.4715c-.173-.09-.356-.161-.545-.21-.043-.012-.085-.028-.125-.048-.173-.059-.353-.101-.535-.124h-.182c-.117-.015-.236-.015-.353 0h-.344c-.029-.005-.058-.005-.086 0-.166-.014-.332-.014-.498 0l-.382.057c-.26.032-.516.09-.765.173l-.382.114-.746.297c-.287.133-.573.286-.879.458l-62.465 35.975Z" fill="#fff"/></g><mask id="c" style="mask-type:luminance" maskUnits="userSpaceOnUse" x="144" y="129" width="126" height="150"><path d="m164.719 278.569-20.363-11.74.076-83.382c.074-3.317.867-6.579 2.324-9.56 1.73-3.652 4.273-6.797 7.112-8.442l62.351-35.907 20.343 11.74v24.511l8.394 4.847c.908.526 2.122-.181 3.633-1.051 2.338-1.422 4.427-3.218 6.185-5.316 1.246-1.381 2.564-2.696 3.948-3.938l8.69 5.009c.068.035.132.076.192.124.01-.005.021-.007.033-.007s.023.002.033.007c.078.045.149.099.211.163.309.271.568.595.765.956.072.096.13.203.172.315.047.082.086.169.114.259.164.377.286.771.364 1.175.005.064.005.128 0 .192 0 .239.076.506.105.774.028.268 0 .545 0 .832.014.267.014.535 0 .803 0 .287-.048.564-.086.831-.038.268-.086.555-.134.832-.048.277-.086.421-.143.631-.034.152-.075.302-.125.449-.296 1.08-.713 2.122-1.243 3.107-.94 1.953-2.402 3.608-4.225 4.78-.244.136-.497.258-.755.364h-.048c-1.713.9-3.61 1.394-5.545 1.443-.612 0-1.233.096-1.912.192l-.698.105c-1.671.332-3.283.915-4.78 1.73-.181.086-.354.172-.516.268l-.545.306c-1.128.649-2.202 1.388-3.212 2.208l-.096.096c-.478.392-.956.803-1.319 1.185l-.076.077c-.93.931-1.771 1.945-2.515 3.03-.347.481-.666.983-.956 1.501l-.191.325c-.249.459-.468.956-.688 1.377v.076c-.058.105-.105.22-.153.316-.201.497-.421 1.003-.612 1.52l-.086.258c-.21.612-.421 1.233-.583 1.835 0 .086-.048.163-.048.191-.134.536-.277 1.071-.392 1.626 0 .162-.067.334-.105.497v.134c-.086.401-.144.812-.22 1.233 0 .239-.086.497-.124.755-.039.258-.106.765-.144 1.157v.191c-.04.202-.065.406-.076.612 0 .401-.086.813-.125 1.243v.812l-.219 6.692v21.988l-5.736 3.327-1.826 1.061-3.604 2.056-5.249 3.04c-3.652 2.113-6.176 3.183-7.744 3.308-.241.03-.485.03-.726 0-.163-.036-.321-.094-.469-.172l-7.485-4.379c-.004-.032-.004-.064 0-.096.086-.956.201-1.912.335-2.772.086-.554.181-1.09.286-1.587.278-1.568.631-2.973.956-4.311.742-2.661 1.181-5.396 1.31-8.155v-.134c0-.449 0-.746.048-1.023 0-2.132-.631-3.776-1.759-4.627-.055-.041-.113-.08-.172-.115l-.153-.086-8.365-4.828c-2.319 2.569-4.187 5.51-5.526 8.7-.181.44-.363.88-.526 1.3-.162.421-.334.889-.478 1.339l-.067.191c-.153.449-.286.898-.42 1.348-.134.449-.249.908-.354 1.357-.105.45-.143.622-.21.956-.067.335-.125.622-.163.956-.117.633-.2 1.271-.248 1.912-.048.344-.077.698-.096 1.042-.019.345-.048.889-.048 1.32v.85c0 .278 0 .526.058.765 0 .411 0 .794.067 1.167.05.865.149 1.727.296 2.581 0 .344.105.679.172.956.304 1.432.7 2.844 1.185 4.225.584 1.54.978 3.145 1.176 4.78v.526c.058.708.086 1.405.086 2.132 0 4.713 0 7.313-10.019 13.097l-16.519 9.656Z" fill="#fff"/></mask><g mask="url(#c)"><path d="m211.171 249.679-20.277-11.893c-.793-.469-1.042-1.778-1.042-4.608.003-2.332.283-4.655.832-6.921-.611 1.407-1.129 2.854-1.549 4.33 1.912-7.026 6.377-13.709 11.472-16.672 3.356-1.912 6.51-2.018 8.891-.22 2.38 1.797 3.69 5.229 3.69 9.722 0 .43 0 .851-.048 1.233v.526c0 .956-.115 1.912-.22 2.916-.009.16-.029.32-.057.478v.143c-.086.679-.172 1.339-.277 1.999-.077.391-.153.783-.22 1.166-.067.382-.153.774-.23 1.157-.21.956-.449 1.998-.697 3.04-.83 2.921-1.27 5.94-1.31 8.977-.01 2.848.191 4.158 1.042 4.627ZM164.719 278.569l-20.363-11.74.076-83.373c.067-3.318.86-6.581 2.324-9.56l20.324 11.73c-1.495 3.021-2.308 6.334-2.38 9.704l.019 83.239Z" fill="#BA68C8"/><path d="m211.171 249.679-20.277-11.893c-.793-.469-1.042-1.778-1.042-4.608.003-2.332.283-4.655.832-6.921 2.294-5.325 5.898-10 9.961-12.342 3.356-1.912 6.511-2.018 8.891-.22 2.381 1.797 3.652 5.229 3.652 9.722 0 .43 0 .851-.048 1.233v.526c0 .956-.115 1.912-.22 2.916-.009.16-.029.32-.057.478v.143c-.086.679-.172 1.339-.277 1.999-.077.391-.153.783-.22 1.166-.067.382-.153.774-.23 1.157-.21.956-.449 1.998-.697 3.04-.83 2.921-1.27 5.94-1.31 8.977-.01 2.848.191 4.158 1.042 4.627ZM164.719 278.569l-20.363-11.74.076-83.373c.067-3.318.86-6.581 2.324-9.56l20.324 11.73c-1.495 3.021-2.308 6.334-2.38 9.704l.019 83.239Z" fill="#263238"/><path d="M164.719 278.569V195.32c.072-3.37.885-6.682 2.38-9.703l-20.324-11.73c.057-.124.105-.239.162-.354.084-.19.18-.376.287-.554.134-.258.268-.507.411-.756.143-.248.344-.602.535-.879l.106-.201c.025-.04.054-.079.086-.115.162-.267.353-.545.545-.812l.172-.239c.097-.151.206-.295.325-.43.103-.147.215-.287.334-.421l.096-.124c.172-.22.354-.44.545-.641l.229-.239c.049-.062.104-.119.163-.172l.105-.124.201-.182.353-.344c.031-.034.066-.063.106-.086.105-.096.2-.201.296-.277l.105-.086h.048l.258-.192c.096-.086.201-.152.296-.229.096-.076.192-.153.287-.229.114-.087.232-.166.354-.239.208-.161.428-.305.66-.431l62.359-35.907 20.344 11.749v18.317l.296-.306c1.64-1.921 3.534-3.61 5.631-5.019h.077c.196-.148.4-.285.612-.411.57-.394 1.241-.617 1.934-.643.693-.025 1.378.148 1.976.5l20.276 11.711c.11.054.213.122.306.201l.172.133c.706.659 1.187 1.521 1.377 2.467.057.239.105.497.143.755.056.425.082.853.077 1.281-.052 2.322-.651 4.598-1.75 6.644-.945 1.953-2.41 3.607-4.235 4.78-.244.142-.496.269-.755.383h-.048c-1.712.901-3.61 1.395-5.544 1.443-3.013.111-5.944 1.011-8.499 2.61-1.128.644-2.2 1.383-3.203 2.209l-.115.086c-.468.392-.956.793-1.319 1.195l-.057.067c-.934.923-1.776 1.934-2.515 3.021-.315.468-.621.956-.956 1.5l-.143.259v.076c-.249.44-.478.956-.698 1.377v.067c-.052.105-.097.213-.134.325-.22.487-.42.956-.612 1.52l-.095.248c-.22.612-.421 1.243-.583 1.836l-.048.201c-.143.525-.277 1.07-.392 1.625 0 .153-.077.325-.105.487v.134c-.077.411-.144.813-.22 1.233 0 .239-.086.497-.115.746-.028.249-.115.774-.162 1.176v.191c0 .191-.048.392-.058.602 0 .402-.086.823-.114 1.234v.22c0 .152 0 .305-.048.458v.144l-.22 6.692v21.988l-5.736 3.336-5.421 3.126-5.248 3.031c-3.642 2.113-6.185 3.183-7.734 3.298-.121.009-.242.009-.363 0-.296-.003-.588-.075-.851-.21-.813-.469-1.052-1.778-1.052-4.627.04-3.037.481-6.055 1.31-8.977.248-1.042.487-2.056.698-3.04.076-.383.162-.765.229-1.157s.144-.774.22-1.166c.105-.66.191-1.32.277-1.998v-.144c.029-.158.048-.317.058-.478.105-1.004.181-1.912.22-2.916v-.554c0-.382.057-.803.047-1.233 0-4.484-1.3-7.935-3.68-9.732-2.381-1.798-5.535-1.731-8.891.22-4.063 2.342-7.648 7.017-9.962 12.342-.472 1.051-.881 2.13-1.223 3.231-.115.363-.23.736-.325 1.099-.096.363-.23.87-.335 1.31-.03.073-.049.15-.057.229-.096.421-.182.851-.249 1.272-.164.908-.282 1.824-.353 2.744-.02.273-.02.548 0 .822v.956c0 .564 0 1.156.066 1.615.093 3.063.677 6.091 1.731 8.968.579 1.541.973 3.146 1.176 4.78v.325c-.005.067-.005.134 0 .2.047.708.086 1.406.086 2.132 0 4.713 0 7.314-10.01 13.098l-16.586 9.531Z" fill="#37474F"/><path d="m247.174 153.61 20.277 11.711c-.622-.309-1.317-.443-2.009-.387-.692.055-1.356.298-1.921.703-.172.095-.392.248-.611.401l-.067.067h-.048c-2.099 1.406-3.994 3.095-5.631 5.019-2.436 2.83-5.304 5.256-8.499 7.189l-.401.22-.153.076-.115.058c-.306.162-.602.334-.88.468l-.535.23-.182.067-.105.057-.669.249c-.199.078-.404.142-.612.191h-.076l-.679.162c-.229.058-.44.067-.66.105H242.375c-.192 0-.373-.066-.555-.095-.182-.035-.362-.086-.535-.153-.169-.058-.333-.131-.488-.22h-.086c-.141-.069-.278-.145-.411-.229-.129-.092-.251-.195-.363-.306l-.077-.058-.076-.076c-.105-.086-.22-.191-.325-.297-.122-.143-.237-.293-.344-.449l-.058-.086c-.212-.306-.403-.625-.573-.956l-.058-.124c-.082-.145-.156-.295-.219-.45-.067-.162-.144-.363-.211-.554v-.249c-.057-.172-.124-.325-.181-.516-.058-.191-.134-.516-.201-.784-.067-.267-.124-.459-.163-.698-.038-.239-.114-.573-.162-.879-.048-.306-.086-.497-.125-.746-.038-.248-.076-.64-.114-.956-.038-.315-.058-.526-.086-.793-.029-.268-.067-.698-.086-1.071v-.927c0-.335 0-.689-.058-1.052v-.143l-.067-3.824v-3.958c.086-.105.192-.201.278-.297 1.639-1.921 3.534-3.61 5.63-5.019h.048l.077-.057c.191-.147.393-.281.602-.401.557-.369 1.203-.579 1.87-.608.667-.029 1.33.125 1.916.445Z" fill="#000"/><path d="m167.109 185.627-20.344-11.75c.057-.124.105-.229.172-.344.084-.19.18-.376.287-.554.134-.258.268-.507.411-.756.143-.248.344-.602.535-.879.055-.111.119-.216.192-.316.162-.267.353-.544.545-.812l.172-.239c.097-.151.206-.295.325-.43.132-.19.276-.372.43-.545.172-.22.354-.44.545-.641l.229-.239c.049-.062.104-.119.163-.172l.306-.306.353-.344c.031-.034.066-.063.106-.086.124-.131.258-.252.401-.363h.048l.258-.191c.186-.164.381-.317.583-.459.114-.087.232-.166.354-.239.208-.161.428-.305.66-.431l62.35-35.916 20.344 11.749-27.409 15.822-35.028 20.238c-.268.153-.526.316-.784.488s-.478.344-.698.535c-.129.085-.25.181-.363.287-.229.181-.459.401-.679.612-.22.21-.535.525-.793.793-.575.628-1.108 1.292-1.597 1.989-.191.267-.382.535-.564.822-.559.859-1.064 1.753-1.51 2.677Z" fill="#455A64"/></g><path d="M137.138 206.228c.997.058 1.979-.252 2.763-.87 2.113-1.634 3.69-1.501 5.956-2.476 1.778-.774 2.495-1.721 2.868-1.396.37.412.572.948.563 1.501-.009.554-.227 1.083-.611 1.482-.683.795-1.475 1.491-2.352 2.065 2.102-.13 4.174-.555 6.157-1.262 4.78-1.625 7.046-.956 4.876 5.115-1.358 3.824-4.78 5.927-14.159 5.736-3.466-.234-6.912-.7-10.315-1.396-9.283-1.826-27.973-4.627-31.233-9.015-9.2249-12.428-17.6855-22.676-18.8518-31.95-.956-7.781 3.824-12.131 8.2502-12.131 2.5143 2.648 4.0439 5.803 6.3574 13.231 0 0 12.0072 21.5 13.2212 23.068 3.021 1.654 24.541 7.983 26.51 8.298ZM310.528 126.574c1.616.956 3.346 1.367 5.497 2.935 1.39 1.194 3.051 2.031 4.837 2.438 2.304.564 20.44-5.564 23.795-8.155 6.836-5.267 12.734-15.181 16.023-18.938 2.705-3.097 5.736-7.7627 9.11-7.7818 5.516 1.6634 4.274 9.8658-.344 17.2078-3.824 6.109-11.07 13.824-19.273 19.206-3.977 2.61-22.303 7.342-28.393 7.744-1.845.115-3.212.535-6.692 1.032-1.446.294-2.928.374-4.398.239-1.804-.28-3.558-.818-5.21-1.596-2.096-.978-3.892-2.5-5.2-4.407-.714-1.049-1.173-2.251-1.339-3.509-.167-1.267.125-2.552.822-3.623.131-.224.319-.408.545-.535.445-.145.928-.111 1.348.095 2.448.851 4.952 2.132 7.467 2.715 2.122.488 3.69.545 3.479.163-.21-.383-1.472-.593-2.915-1.817-1.444-1.223-2.037-3.155-1.32-3.881.717-.727.555-.526 2.161.468Z" fill="#FFA8A7"/><path d="M370.144 95.1316c4.073 1.998 5.736 5.0384 3.92 11.8064-1.626 6.08-7.859 16.453-12.763 21.529 0 0-8.394-3.977-12.858-9.149 4.417-6.759 6.549-10.736 10.698-16.462 4.149-5.7264 8.517-8.4032 11.003-7.7244Z" fill="#E0E0E0"/></svg>
